<?xml version="1.0" encoding="UTF-8"?>
<svg id="Layer_2" data-name="Layer 2" xmlns="http://www.w3.org/2000/svg" viewBox="0 0 38.44 38.44">
  <defs>
    <style>
      .cls-1 {
        fill: #524f4b;
        stroke-width: 0px;
      }
    </style>
  </defs>
  <g id="Layer_1-2" data-name="Layer 1">
    <g>
      <path class="cls-1" d="m19.24,16.31c-1.64-.01-2.98,1.27-2.99,2.88s1.3,2.92,2.94,2.93c1.64.01,2.98-1.28,2.99-2.88.01-1.6-1.3-2.92-2.94-2.93Z"/>
      <path class="cls-1" d="m23.71,12.21c-1.52-.23-7.21-.21-8.8-.03-1.56.17-2.6,1.12-2.83,2.64-.25,1.61-.2,7.64,0,8.85.21,1.26.94,2.13,2.22,2.48,1.34.37,7.77.28,9.22.13,1.57-.17,2.61-1.12,2.84-2.65.24-1.55.2-7.17.04-8.61-.17-1.54-1.14-2.56-2.69-2.79Zm-4.49,11.5c-2.53,0-4.58-2.01-4.58-4.5,0-2.48,2.05-4.49,4.58-4.49,2.53,0,4.58,2.01,4.58,4.5,0,2.48-2.05,4.49-4.58,4.49Zm4.76-8.11c-.59,0-1.07-.47-1.07-1.05,0-.58.48-1.05,1.08-1.05.59,0,1.07.47,1.07,1.06s-.48,1.05-1.08,1.05Z"/>
      <path class="cls-1" d="m19.22,0C8.62,0,0,8.62,0,19.22s8.62,19.22,19.22,19.22,19.22-8.62,19.22-19.22S29.81,0,19.22,0Zm8.67,24.28c-.53,1.99-1.86,3.18-3.91,3.5-1.55.25-8.48.29-9.89-.06-2.04-.51-3.25-1.81-3.59-3.82-.25-1.47-.33-8.35.09-9.84.55-1.94,1.87-3.08,3.87-3.4,1.75-.28,6.74-.21,8.84-.1,1.23.06,2.36.44,3.28,1.31.87.82,1.33,1.84,1.45,2.99.14,1.38.29,7.89-.12,9.43Z"/>
    </g>
  </g>
</svg>