<?xml version="1.0" encoding="UTF-8"?>
<svg id="Layer_2" data-name="Layer 2" xmlns="http://www.w3.org/2000/svg" viewBox="0 0 38.52 38.51">
  <defs>
    <style>
      .cls-1 {
        fill: #524f4b;
        stroke-width: 0px;
      }
    </style>
  </defs>
  <g id="Layer_1-2" data-name="Layer 1">
    <path class="cls-1" d="m28.3,27.52h-3.76v-6.05c0-1.52-.54-2.56-1.9-2.56-1.04,0-1.66.7-1.93,1.37-.1.24-.12.58-.12.92v6.31h-3.76s.05-10.24,0-11.3h3.76v1.6c.5-.77,1.39-1.87,3.39-1.87,2.47,0,4.32,1.62,4.32,5.09v6.48Zm-15.42-12.84h-.02c-1.26,0-2.07-.87-2.07-1.95s.84-1.95,2.12-1.95,2.07.84,2.1,1.95c0,1.09-.81,1.95-2.12,1.95m1.88,12.84h-3.76v-11.3h3.76v11.3ZM19.26,0C8.62,0,0,8.62,0,19.26s8.62,19.26,19.26,19.26,19.26-8.62,19.26-19.26S29.89,0,19.26,0"/>
  </g>
</svg>