<?xml version="1.0" encoding="UTF-8"?>
<svg id="Layer_2" data-name="Layer 2" xmlns="http://www.w3.org/2000/svg" viewBox="0 0 38.52 38.51">
  <defs>
    <style>
      .cls-1 {
        fill: #524f4b;
        stroke-width: 0px;
      }
    </style>
  </defs>
  <g id="Layer_1-2" data-name="Layer 1">
    <g>
      <path class="cls-1" d="m30.44,20.27c0,1.8-.22,3.61-.22,3.61,0,0-.22,1.53-.89,2.21-.85.89-1.8.89-2.23.94-3.12.23-7.8.23-7.8.23,0,0-5.79-.05-7.57-.22-.5-.09-1.61-.07-2.46-.95-.67-.67-.89-2.21-.89-2.21,0,0-.22-1.8-.22-3.61v-1.69c0-1.8.22-3.61.22-3.61,0,0,.22-1.53.89-2.21.85-.89,1.8-.89,2.23-.94,3.12-.23,7.79-.23,7.79-.23h0s4.68,0,7.79.23c.44.05,1.39.06,2.23.94.67.68.89,2.21.89,2.21,0,0,.22,1.8.22,3.61v1.69ZM19.26,0C8.62,0,0,8.62,0,19.26s8.62,19.26,19.26,19.26,19.26-8.62,19.26-19.26S29.89,0,19.26,0"/>
      <polygon class="cls-1" points="17 22.32 23.02 19.2 17 16.06 17 22.32"/>
    </g>
  </g>
</svg>