<?xml version="1.0" encoding="UTF-8"?>
<svg id="Layer_2" data-name="Layer 2" xmlns="http://www.w3.org/2000/svg" viewBox="0 0 40.48 28.63">
  <defs>
    <style>
      .cls-1 {
        fill: #ffd100;
        stroke-width: 0px;
      }
    </style>
  </defs>
  <g id="Layer_1-2" data-name="Layer 1">
    <path class="cls-1" d="m37.84,0H2.64C1.18,0,0,1.18,0,2.64v23.34c0,1.46,1.18,2.64,2.64,2.64h35.2c1.46,0,2.64-1.19,2.64-2.64V2.64c0-1.46-1.18-2.64-2.64-2.64Zm-.94,2.04l-16.22,16.07c-.24.24-.64.24-.88,0L3.58,2.04h33.32ZM2.04,24.93V3.4l10.27,10.18L2.04,24.93Zm1.26,1.66l10.47-11.56,4.59,4.55c.52.51,1.2.77,1.88.77s1.36-.26,1.88-.77l4.52-4.48,10.52,11.49H3.3Zm35.14-1.64l-10.34-11.3,10.34-10.25v21.55Z"/>
  </g>
</svg>