<?xml version="1.0" encoding="UTF-8"?>
<svg id="Layer_2" data-name="Layer 2" xmlns="http://www.w3.org/2000/svg" viewBox="0 0 494.74 405.82">
  <defs>
    <style>
      .cls-1 {
        fill: none;
        stroke: #ffd100;
        stroke-miterlimit: 10;
        stroke-width: 15px;
      }
    </style>
  </defs>
  <g id="Layer_1-2" data-name="Layer 1">
    <g>
      <path class="cls-1" d="m247.37,7.64c-59.42-1.02-128.79,2.42-196.99,41.02C.46,76.91,4.22,126.45,12.34,156.46c1.88,6.94,6.16,12.63,11.74,16.37,6.08,4.07,13.69,5.83,21.39,4.36l57.26-10.9c7.35-1.4,13.59-5.52,17.77-11.18,3.65-4.95,5.73-11.08,5.6-17.61l-.57-29.46c-.13-6.97,2.24-13.48,6.36-18.58,4.12-5.11,9.98-8.81,16.81-10.18,24.93-4.97,78.99-6.8,98.66-6.54h0c19.77-.26,73.79,1.58,98.66,6.54,6.83,1.36,12.69,5.07,16.81,10.18,4.12,5.11,6.49,11.62,6.36,18.58l-.57,29.46c-.13,6.53,1.95,12.66,5.6,17.61,4.18,5.67,10.42,9.79,17.77,11.18l57.26,10.9c7.7,1.47,15.31-.29,21.39-4.36,5.58-3.74,9.86-9.43,11.74-16.37,8.12-30.01,11.88-79.54-38.04-107.79C376.16,10.07,306.79,6.63,247.37,7.64h0Z"/>
      <path class="cls-1" d="m357.07,182.04c-6.44-4.59-6.2-8.16-6.2-13.59v-26.98c0-4.66-1.78-8.91-4.69-12.11-3.29-3.61-8.03-5.87-13.29-5.87h-22.4c-5.13,0-9.76,2.14-13.03,5.59-3.06,3.22-4.95,7.59-4.95,12.39v20.63c0,4.97-2.01,9.46-5.27,12.72s-7.75,5.27-12.71,5.27h-54.3c-4.97,0-9.46-2.02-12.72-5.27-3.25-3.26-5.27-7.75-5.27-12.72v-20.63c0-4.8-1.88-9.16-4.95-12.39-3.27-3.45-7.9-5.59-13.03-5.59h-22.4c-5.27,0-10.01,2.26-13.3,5.87-2.91,3.2-4.69,7.45-4.69,12.11v26.98c0,5.43.24,8.99-6.2,13.59-3.4,2.43-95.83,41.08-95.83,95.52v103.54c0,9.51,7.71,17.21,17.21,17.21h376.64c9.51,0,17.21-7.71,17.21-17.21v-103.54c0-54.44-92.43-93.09-95.83-95.52Zm-109.7,180.05c-38.94,0-70.62-31.68-70.62-70.62s31.68-70.63,70.62-70.63,70.62,31.68,70.62,70.63-31.68,70.62-70.62,70.62Z"/>
    </g>
  </g>
</svg>