<?xml version="1.0" encoding="UTF-8"?>
<svg id="Layer_2" data-name="Layer 2" xmlns="http://www.w3.org/2000/svg" viewBox="0 0 37.33 38.03">
  <defs>
    <style>
      .cls-1 {
        fill: #ffd100;
        stroke-width: 0px;
      }
    </style>
  </defs>
  <g id="Layer_1-2" data-name="Layer 1">
    <path class="cls-1" d="m37.31,30.46c-.19-2.35-2.28-3.77-2.46-3.89-.74-.49-1.48-1.05-2.2-1.58-2.88-2.14-6.15-4.57-8.75-1.97-1.58,1.58-2.94,1.22-3.29,1.09-.47-.39-2.41-2.04-4.41-4.02-2.55-2.52-2.8-3.65-1.34-6.04,2.36-3.86,1.36-5.29-1.96-10.03l-.15-.21C11.02,1.35,9.62.21,8.07.03c-1.83-.22-3.49.99-4.87,2.2C-.2,5.2-.95,10.05,1.24,14.89c1.55,3.4,6.13,11.98,15.25,18.11,4.59,3.08,8.39,5.03,11.87,5.03,2.3,0,4.46-.86,6.61-2.8,1.69-1.53,2.47-3.13,2.34-4.76Zm-3.71,3.25c-3.94,3.57-7.97,2.96-15.97-2.41C8.95,25.47,4.58,17.29,3.11,14.04c-1.84-4.04-1.3-7.88,1.44-10.28,1.35-1.18,2.31-1.72,3.09-1.72.07,0,.13,0,.19.01.89.11,1.92,1.04,3.25,2.93l.15.21c3.28,4.69,3.55,5.07,1.89,7.79-2.22,3.63-1.13,5.8,1.65,8.55,2.36,2.34,4.56,4.16,4.66,4.23.06.05.12.09.19.12.12.06,2.89,1.42,5.75-1.43,1.22-1.22,2.87-.23,6.09,2.16.74.55,1.51,1.12,2.29,1.64,0,0,0,0,.01,0,.01,0,1.43.96,1.54,2.35.08.96-.48,2-1.67,3.08Z"/>
  </g>
</svg>