<svg xmlns="http://www.w3.org/2000/svg" viewBox="0 0 84.54 84.54"><defs><style>.cls-1{fill:#fff;}.cls-2{fill:#ffd100;}</style></defs><title>icon-2</title><g id="Layer_2" data-name="Layer 2"><g id="Layer_1-2" data-name="Layer 1"><path class="cls-1" d="M42.27,8.74A4.37,4.37,0,1,0,37.9,4.37,4.37,4.37,0,0,0,42.27,8.74Zm0-6.76a2.39,2.39,0,1,1-2.39,2.39A2.39,2.39,0,0,1,42.27,2Z"/><path class="cls-1" d="M42.27,75.81a4.37,4.37,0,1,0,4.37,4.36A4.37,4.37,0,0,0,42.27,75.81Zm0,6.75a2.39,2.39,0,1,1,2.39-2.39A2.39,2.39,0,0,1,42.27,82.56Z"/><path class="cls-1" d="M18.56,18.56a4.36,4.36,0,0,0,0-6.18,4.48,4.48,0,0,0-6.18,0,4.37,4.37,0,0,0,6.18,6.18Zm-4.78-4.78a2.39,2.39,0,0,1,3.38,3.38,2.45,2.45,0,0,1-3.38,0A2.4,2.4,0,0,1,13.78,13.78Z"/><path class="cls-1" d="M66,66a4.37,4.37,0,0,0,6.18,6.18,4.31,4.31,0,0,0,1.28-3.09A4.39,4.39,0,0,0,66,66Zm4.78,4.78a2.45,2.45,0,0,1-3.38,0,2.39,2.39,0,1,1,3.38,0Z"/><path class="cls-1" d="M4.37,37.9a4.37,4.37,0,1,0,4.37,4.37A4.37,4.37,0,0,0,4.37,37.9Zm0,6.76a2.39,2.39,0,1,1,2.39-2.39A2.39,2.39,0,0,1,4.37,44.66Z"/><path class="cls-1" d="M74.77,41.89a1,1,0,0,0-.21-.32l-3.73-3.72a1,1,0,0,0-1.4,0,1,1,0,0,0,0,1.4l2,2H65.62a23.23,23.23,0,0,0-6.15-14.81l4.14-4.14V25.2a1,1,0,0,0,2,0V19.94a1,1,0,0,0-1-1H59.34a1,1,0,0,0,0,2h2.87l-4.14,4.14a23.28,23.28,0,0,0-14.81-6.14V13.08l2,2a1,1,0,0,0,1.4-1.4L43,10a1,1,0,0,0-.32-.22,1.07,1.07,0,0,0-.76,0,1,1,0,0,0-.32.22l-3.72,3.72a1,1,0,1,0,1.4,1.4l2-2v5.85a23.28,23.28,0,0,0-14.81,6.14l-4.14-4.14H25.2a1,1,0,0,0,0-2H19.94a1,1,0,0,0-.38.07,1,1,0,0,0-.54.54,1,1,0,0,0-.07.38V25.2a1,1,0,0,0,2,0V22.33l4.14,4.14a23.34,23.34,0,0,0-6.15,14.81H13.08l2-2a1,1,0,1,0-1.4-1.4L10,41.57a.87.87,0,0,0-.22.32,1,1,0,0,0,0,.76A.87.87,0,0,0,10,43l3.72,3.72a1,1,0,0,0,1.4-1.4l-2-2h5.84a23.32,23.32,0,0,0,6.15,14.81l-4.14,4.14V59.34a1,1,0,1,0-2,0c0,7.55-1.33,6.26,6.25,6.26a1,1,0,1,0,0-2H22.33l4.14-4.14a23.28,23.28,0,0,0,14.81,6.14v5.85l-2-2a1,1,0,0,0-1.4,0,1,1,0,0,0,0,1.4l3.72,3.73a1,1,0,0,0,1.4,0l3.72-3.73a1,1,0,0,0,0-1.4,1,1,0,0,0-1.4,0l-2,2V65.62a23.28,23.28,0,0,0,14.81-6.14l4.14,4.14H59.34a1,1,0,0,0,0,2H64.6a1,1,0,0,0,.38-.08,1,1,0,0,0,.54-.54,1,1,0,0,0,.08-.37V59.34a1,1,0,0,0-2,0v2.87l-4.13-4.14a23.25,23.25,0,0,0,6.14-14.81h5.84l-2,2a1,1,0,0,0,0,1.4,1,1,0,0,0,1.4,0L74.56,43a1,1,0,0,0,.21-1.08ZM42.56,63.67a.8.8,0,0,0-.57,0A21.42,21.42,0,0,1,20.86,42.3v0a21.42,21.42,0,1,1,21.7,21.42Z"/><path class="cls-1" d="M80.17,37.9a4.37,4.37,0,1,0,4.37,4.37A4.37,4.37,0,0,0,80.17,37.9Zm0,6.76a2.39,2.39,0,1,1,2.39-2.39A2.39,2.39,0,0,1,80.17,44.66Z"/><path class="cls-1" d="M12.38,66a4.37,4.37,0,1,0,6.18,0A4.48,4.48,0,0,0,12.38,66Zm4.78,4.78a2.45,2.45,0,0,1-3.38,0,2.39,2.39,0,1,1,3.38,0Z"/><path class="cls-1" d="M72.16,18.56a4.36,4.36,0,0,0,0-6.18,4.48,4.48,0,0,0-6.18,0,4.37,4.37,0,1,0,6.18,6.18Zm-4.78-4.78a2.39,2.39,0,0,1,3.38,3.38,2.45,2.45,0,0,1-3.38,0A2.4,2.4,0,0,1,67.38,13.78Z"/><path class="cls-2" d="M53.81,30.18H30.73a1,1,0,0,0-1,1v22.2a1,1,0,0,0,1,1H53.81a1,1,0,0,0,1-1V31.17A1,1,0,0,0,53.81,30.18Zm-6.65,2V37.6c-2.28-2.27-1.74-2.16-4.88,1-3.25-3.24-2.72-3.16-4.89-1V32.16Zm5.66,20.22H31.73V32.16H35.4V40a1,1,0,0,0,1.69.7l2.24-2.24,2.23,2.24a1,1,0,0,0,1.41,0l2.23-2.24,2.25,2.24a1,1,0,0,0,1.69-.7V32.16h3.68Z"/></g></g></svg>