<svg xmlns="http://www.w3.org/2000/svg" viewBox="0 0 68.22 55.62"><defs><style>.cls-1{fill:#fff;}.cls-2{fill:#ffd100;}</style></defs><title>icon-1</title><g id="Layer_2" data-name="Layer 2"><g id="Layer_1-2" data-name="Layer 1"><path class="cls-1" d="M68.22,27.66v-.05a1.85,1.85,0,0,0,0-.23V27a2.53,2.53,0,0,1,0-.28v-.06a1.77,1.77,0,0,0,0-.23v-.23a27.56,27.56,0,0,0-7.7-17.67A26.27,26.27,0,0,0,57.65,6,27.81,27.81,0,0,0,19.19,9.84a1.56,1.56,0,0,0-.24.35,1.83,1.83,0,0,0,3,2.07A24.28,24.28,0,0,1,25.27,9,23.88,23.88,0,0,1,40.05,3.67a23,23,0,0,1,2.76.11h0l.2,0A24.2,24.2,0,0,1,54.35,8.1l0,0,.2.15.08.05.16.12.07.06.17.12,0,0,.19.15h0a24.09,24.09,0,0,1,1.8,36.39h0l-.15.15-.12.11,0,0a24.29,24.29,0,0,1-13.69,6.27l-.16,0h0c-.7.08-1.42.12-2.15.13a24.34,24.34,0,0,1-5.35-.51l-.09,0-.14,0a23,23,0,0,1-2.26-.62A24,24,0,0,1,18.21,37.28a1.24,1.24,0,0,0-.1-.2,1.83,1.83,0,0,0-3.31,1.56,28.1,28.1,0,0,0,2.55,4.7A27.49,27.49,0,0,0,30.09,53.62h0a26.4,26.4,0,0,0,3.66,1.17l.24.06.11,0A27.5,27.5,0,0,0,47,54.83l.14,0h0A27.8,27.8,0,0,0,68.22,27.66Z"/><path class="cls-2" d="M27,16.46a1.77,1.77,0,0,0-1.78-1.77H1.78a1.78,1.78,0,1,0,0,3.55H25.19A1.78,1.78,0,0,0,27,16.46Z"/><path class="cls-2" d="M27,24.62a1.77,1.77,0,0,0-1.78-1.77H5A1.78,1.78,0,1,0,5,26.4H25.19A1.77,1.77,0,0,0,27,24.62Z"/><path class="cls-2" d="M27,32.79A1.78,1.78,0,0,0,25.19,31H8.87a1.78,1.78,0,0,0,0,3.55H25.19A1.77,1.77,0,0,0,27,32.79Z"/><path class="cls-1" d="M40.65,35.16,55.42,21.28a2,2,0,0,0-2.74-2.91L40.54,29.79a.29.29,0,0,1-.4,0l-3.58-3.73A2,2,0,0,0,33.73,26a2,2,0,0,0,0,2.82l6.07,6.32A.64.64,0,0,0,40.65,35.16Z"/></g></g></svg>