<svg xmlns="http://www.w3.org/2000/svg" viewBox="0 0 77.93 75.02"><defs><style>.cls-1{fill:#fff;}.cls-2{fill:#ffd100;}</style></defs><title>icon-3</title><g id="Layer_2" data-name="Layer 2"><g id="Layer_1-2" data-name="Layer 1"><path class="cls-1" d="M3.19,12.23,13.24,2.46H49.43l10,9.77a1,1,0,0,1,0,1.16H3.19A.81.81,0,0,1,3,12.9a.86.86,0,0,1,.19-.67ZM60.3,31.82h-.86A24.75,24.75,0,0,0,41.7,39.33l-.27,0H22a1.23,1.23,0,0,0,0,2.45H39.81a43.56,43.56,0,0,0-2.63,4.18H22a1.22,1.22,0,0,0,0,2.44H36.1l0,.11a24.64,24.64,0,0,0-1,12.41H3.61a1.16,1.16,0,0,1-1.16-1.16V17a1.16,1.16,0,0,1,1.16-1.16H59.14A1.16,1.16,0,0,1,60.3,17V31.82ZM3.61,63.34h33a1.23,1.23,0,0,0,1.19-1.52,22.27,22.27,0,0,1,.58-12.57.24.24,0,0,0,0-.08C39,47.08,41.87,43,43,41.55a22.31,22.31,0,0,1,16.47-7.3c.66,0,1.33,0,2,.09a1.21,1.21,0,0,0,.94-.32,1.24,1.24,0,0,0,.4-.9V17a3.58,3.58,0,0,0-1-2.54c.06-.11.11-.22.16-.33a3.38,3.38,0,0,0-.67-3.66L51.14.7A2.42,2.42,0,0,0,49.47,0H13.2a2.4,2.4,0,0,0-1.67.7l-10,9.77a3.37,3.37,0,0,0-.67,3.66,2.69,2.69,0,0,0,.19.38A3.58,3.58,0,0,0,0,17V59.73a3.61,3.61,0,0,0,3.61,3.61Z"/><path class="cls-2" d="M50.7,65.26a19.53,19.53,0,0,0,2.79,6.11,16,16,0,0,1-8.9-8.9,19.64,19.64,0,0,0,6.11,2.79ZM47.8,51.54a18,18,0,0,1,2.27-.94,35.36,35.36,0,0,0,0,11.85,18,18,0,0,1-2.27-1c-2.77-1.38-4.36-3.2-4.36-5s1.59-3.59,4.36-5Zm5.69-9.87a19.7,19.7,0,0,0-2.79,6.12,19.4,19.4,0,0,0-6.11,2.78,16.07,16.07,0,0,1,8.9-8.9Zm1,3.22c1.38-2.78,3.2-4.37,5-4.37s3.59,1.59,5,4.37a19.41,19.41,0,0,1,1,2.26,35.41,35.41,0,0,0-11.86,0,19.41,19.41,0,0,1,1-2.26Zm19.83,5.68a19.51,19.51,0,0,0-6.11-2.78,19.7,19.7,0,0,0-2.79-6.12,16.13,16.13,0,0,1,8.9,8.9ZM71.08,61.5a18.61,18.61,0,0,1-2.27,1,35.36,35.36,0,0,0,0-11.85,18.59,18.59,0,0,1,2.27.94c2.77,1.39,4.36,3.2,4.36,5s-1.59,3.6-4.36,5Zm-5.69,9.87a19.64,19.64,0,0,0,2.79-6.11,19.64,19.64,0,0,0,6.11-2.79,16.07,16.07,0,0,1-8.9,8.9ZM52.76,63.2a32.22,32.22,0,0,1,0-13.36,32.68,32.68,0,0,1,13.36,0,32.68,32.68,0,0,1,0,13.36,32.22,32.22,0,0,1-13.36,0Zm11.66,5c-1.39,2.77-3.2,4.36-5,4.36s-3.6-1.59-5-4.36a18.87,18.87,0,0,1-1-2.27,35.41,35.41,0,0,0,11.86,0,18.87,18.87,0,0,1-1,2.27ZM59.31,75h.26A18.5,18.5,0,0,0,77.93,56.65v-.26A18.52,18.52,0,0,0,59.57,38h-.26A18.5,18.5,0,0,0,41,56.39a.62.62,0,0,0,0,.13.57.57,0,0,0,0,.13A18.49,18.49,0,0,0,59.31,75Z"/></g></g></svg>