<svg xmlns="http://www.w3.org/2000/svg" viewBox="0 0 96.47 77.36"><defs><style>.cls-1{fill:#fff;stroke:#fff;stroke-width:1.21px;}.cls-1,.cls-2{stroke-miterlimit:10;}.cls-2{fill:none;stroke:#ffd100;stroke-width:2.32px;}</style></defs><title>icon-box</title><g id="Layer_2" data-name="Layer 2"><g id="Layer_1-2" data-name="Layer 1"><path class="cls-1" d="M48.29,13.59,26.18,26.36V51.89L48.29,64.66,70.4,51.89V26.36ZM69.6,51.42,48.35,63.69,27,51.38V26.74L48.33,14.5,69.6,26.77Z"/><path class="cls-1" d="M48.29,26.18,37.18,32.6V45.42l11.11,6.41,11.1-6.41V32.6ZM58.78,45,48.34,51,37.9,45V32.92l10.44-6L58.75,33Z"/><polygon class="cls-1" points="70.4 26.77 70.04 26.14 48.4 38.63 48.18 38.63 26.54 26.14 26.18 26.77 47.92 39.33 47.92 64.36 48.65 64.36 48.65 39.33 70.4 26.77"/><path class="cls-1" d="M48.91,17a.63.63,0,1,1-.62-.62A.63.63,0,0,1,48.91,17Z"/><path class="cls-1" d="M48.91,20.54a.63.63,0,1,1-.62-.63A.62.62,0,0,1,48.91,20.54Z"/><path class="cls-1" d="M48.91,24a.63.63,0,1,1-.62-.63A.62.62,0,0,1,48.91,24Z"/><path class="cls-1" d="M61.52,46.07a.62.62,0,1,1-.62,1.08.61.61,0,0,1-.23-.85A.62.62,0,0,1,61.52,46.07Z"/><path class="cls-1" d="M64.56,47.82a.64.64,0,0,1,.23.86.62.62,0,0,1-.85.23.63.63,0,0,1-.23-.86A.62.62,0,0,1,64.56,47.82Z"/><path class="cls-1" d="M67.56,49.56a.62.62,0,1,1-.85.22A.61.61,0,0,1,67.56,49.56Z"/><path class="cls-1" d="M34.85,46.07a.62.62,0,0,0-.23.85.63.63,0,0,0,.86.23.62.62,0,0,0,.23-.85A.64.64,0,0,0,34.85,46.07Z"/><path class="cls-1" d="M31.81,47.82a.63.63,0,1,0,.63,1.09.63.63,0,0,0-.63-1.09Z"/><path class="cls-1" d="M28.81,49.56a.62.62,0,0,0-.23.85.63.63,0,0,0,1.09-.63A.62.62,0,0,0,28.81,49.56Z"/><line class="cls-2" x1="18.59" y1="38.18" y2="38.18"/><polyline class="cls-2" points="14.06 33.46 18.8 38.2 14.22 42.78"/><line class="cls-2" x1="30.52" y1="15.58" x2="17.38" y2="2.43"/><polyline class="cls-2" points="30.66 9.04 30.66 15.74 24.18 15.74"/><line class="cls-2" x1="64.72" y1="13.96" x2="77.86" y2="0.82"/><polyline class="cls-2" points="71.26 14.1 64.56 14.1 64.56 7.62"/><line class="cls-2" x1="77.88" y1="38.52" x2="96.47" y2="38.52"/><polyline class="cls-2" points="82.4 43.25 77.66 38.51 82.25 33.92"/><line class="cls-2" x1="64.72" y1="63.4" x2="77.86" y2="76.55"/><polyline class="cls-2" points="64.58 69.94 64.58 63.24 71.06 63.24"/><line class="cls-2" x1="31.33" y1="62.99" x2="18.19" y2="76.14"/><polyline class="cls-2" points="24.79 62.85 31.5 62.85 31.5 69.34"/></g></g></svg>