<svg xmlns="http://www.w3.org/2000/svg" viewBox="0 0 57.14 57.14"><defs><style>.cls-1{fill:#ffd100;}.cls-2{fill:none;stroke:#fff;stroke-miterlimit:10;stroke-width:3.5px;}</style></defs><title>icon-pound</title><g id="Layer_2" data-name="Layer 2"><g id="Layer_1-2" data-name="Layer 1"><path class="cls-1" d="M18.31,41.12v-.23a1.27,1.27,0,0,1,.63-1.07,8.89,8.89,0,0,0,4.5-7.53c0-.69,0-1.31-.08-2a1.3,1.3,0,0,0-1.3-1.16H19.87a1.3,1.3,0,0,1-1.3-1.3v-.24a1.3,1.3,0,0,1,1.3-1.3h1.37a1.29,1.29,0,0,0,1.29-1.47,24.25,24.25,0,0,1-.27-3.39c0-5.31,3.64-8.77,8.63-8.78a11.26,11.26,0,0,1,3.82.6,1.28,1.28,0,0,1,.76,1.59l-.16.53a1.28,1.28,0,0,1-1.6.87,9.42,9.42,0,0,0-2.82-.39c-3.51,0-4.94,2.43-4.94,5.62a20.37,20.37,0,0,0,.35,3.75,1.29,1.29,0,0,0,1.28,1.07h4.09A1.3,1.3,0,0,1,33,27.6v.24a1.3,1.3,0,0,1-1.3,1.3H28.24a1.31,1.31,0,0,0-1.3,1.37,12.83,12.83,0,0,1-.26,3.67A9.36,9.36,0,0,1,23.58,39v.09H35.69A1.3,1.3,0,0,1,37,40.42v.69a1.3,1.3,0,0,1-1.3,1.3H19.61A1.3,1.3,0,0,1,18.31,41.12Z"/><circle class="cls-2" cx="28.57" cy="28.57" r="26.82"/></g></g></svg>